<?xml version="1.0" encoding="UTF-8"?>
<svg id="Lager_1" data-name="Lager 1" xmlns="http://www.w3.org/2000/svg" viewBox="0 0 85.4 85.4">
  <path d="M42.7,85.4c23.6,0,42.7-19.1,42.7-42.7S66.3,0,42.7,0,0,19.1,0,42.7s19.1,42.7,42.7,42.7Z" fill="#2dac2f" fill-rule="evenodd"/>
  <path d="M42.7,81.8c21.6,0,39.1-17.5,39.1-39.1S64.3,3.6,42.7,3.6,3.6,21.1,3.6,42.7s17.5,39.1,39.1,39.1Z" fill="#61c555" fill-rule="evenodd"/>
  <path d="M75.9,42.7h-26.7c-3.6,0-6.5,2.9-6.5,6.5v26.7l33.2-33.2Z" fill="#2a6218" fill-rule="evenodd"/>
  <path d="M9.4,42.7h26.8c3.6,0,6.5-2.9,6.5-6.5V9.4L9.4,42.7Z" fill="#2a6218" fill-rule="evenodd"/>
</svg>